<svg xmlns="http://www.w3.org/2000/svg" width="99" height="22" viewBox="0 0 99 22">
    <path fill="#3AD29F" fill-rule="evenodd" d="M85.344 10.057L84.08 16.46c-.079.426-.118.757-.118.994 0 .299.075.544.224.733.149.19.374.292.672.308-.142.473-.433.831-.873 1.076-.44.244-.942.367-1.507.367-.66 0-1.183-.173-1.567-.52-.387-.348-.579-.845-.579-1.492 0-.409.08-1.064.236-1.963.157-.9.299-1.656.425-2.27l1.25-6.295.618-.063c1.533-.157 2.78 1.212 2.482 2.723zM56.506 6.924c1.587 0 2.73.41 3.43 1.231.7.82 1.049 1.995 1.049 3.524 0 1.5-.272 2.875-.814 4.13-.542 1.253-1.354 2.255-2.438 3.004-1.085.749-2.39 1.124-3.913 1.124-1.588 0-2.73-.414-3.43-1.242-.7-.828-1.049-2.015-1.049-3.56 0-1.499.27-2.872.814-4.117.54-1.246 1.35-2.24 2.428-2.982 1.075-.74 2.383-1.112 3.923-1.112zm39.36 0c2.089 0 3.134.963 3.134 2.887 0 .552-.067 1.182-.2 1.893-.134.71-.327 1.57-.578 2.578-.204.837-.354 1.483-.448 1.94-.094.458-.141.844-.141 1.16 0 .331.067.59.2.78.134.19.366.3.696.332-.142.473-.437.831-.884 1.077-.448.243-.955.366-1.521.366-.66 0-1.178-.177-1.555-.533-.378-.354-.566-.879-.566-1.573 0-.425.055-.914.165-1.467.11-.552.299-1.396.566-2.531.455-1.861.683-3.1.683-3.715 0-.426-.098-.76-.295-1.005-.196-.244-.49-.367-.883-.367-.707 0-1.273.376-1.698 1.125-.423.749-.738 1.652-.942 2.708l-.864 4.43c-.285 1.458-1.49 2.559-2.967 2.71-.592.062-1.074-.466-.96-1.05l2.198-11.271.786-.1c1.121-.14 2.067.828 1.901 1.945.425-.788.994-1.372 1.71-1.75.714-.38 1.535-.57 2.463-.57zM33.69 3.376c1.241 0 2.274.248 3.1.745.824.497 1.237 1.242 1.237 2.236 0 .804-.255 1.447-.766 1.928-.511.48-1.135.721-1.873.721-.504 0-.88-.086-1.132-.26.172-.552.259-1.15.259-1.798 0-.52-.114-.966-.341-1.336-.229-.37-.594-.556-1.097-.556-.864 0-1.614.465-2.25 1.396-.637.93-1.12 2.066-1.45 3.406-.33 1.34-.495 2.595-.495 3.761 0 2.509.825 3.762 2.475 3.762.33 0 .66-.038.99-.117.33-.08.59-.206.778-.379l.754-4.874.75-.083c1.362-.15 2.51 1.084 2.19 2.417-.08.333-.153.675-.217 1.026-.26 1.404-.406 2.791-.438 4.163-.282.268-.659.403-1.131.403-.55 0-.99-.13-1.32-.391-.33-.26-.51-.579-.541-.958-.592.53-1.382.931-2.369 1.206-.142.04-.298.07-.443.087-1.974.237-3.418-.282-4.33-1.553-.77-1.073-1.154-2.555-1.154-4.448 0-1.829.34-3.544 1.024-5.146.684-1.6 1.694-2.894 3.029-3.88 1.335-.986 2.923-1.478 4.761-1.478zm13.222 3.548c.833 0 1.47.23 1.91.687.44.457.659 1.08.659 1.869 0 .9-.259 1.648-.777 2.247-.518.6-1.179.9-1.98.9-.252 0-.492-.036-.719-.108-.228-.07-.397-.184-.507-.342.236-.315.432-.71.59-1.184.156-.472.235-.898.235-1.277 0-.647-.267-.97-.8-.97-.567 0-1.034.37-1.403 1.112-.37.742-.657 1.688-.86 2.839l-.695 4.15c-.258 1.545-1.519 2.725-3.077 2.88-.576.058-1.045-.455-.936-1.024l2.161-11.305.81-.101c1.122-.14 2.067.828 1.901 1.946.33-.725.798-1.293 1.402-1.703.605-.41 1.3-.616 2.086-.616zm31.182 0c1.131 0 1.697.584 1.697 1.75 0 .916-.275 2.012-.825 3.29-.55 1.278-1.218 2.46-2.003 3.55-.663.887-1.31 1.67-1.94 2.347-.944 1.018-2.21 1.667-3.588 1.836-.521.065-.984-.336-.994-.862-.028-1.561-.061-2.795-.1-3.7-.426.85-.964 1.652-1.616 2.4-.324.373-.66.72-1.01 1.039-.628.575-1.425.93-2.27 1.032-1.037.126-1.96-.674-1.995-1.719-.118-3.579-.303-6.207-.558-7.887-.11-.726-.232-1.25-.365-1.573-.134-.323-.334-.572-.601-.745.518-.505 1.225-.758 2.12-.758.912 0 1.545.245 1.898.733.354.49.57 1.27.649 2.343.061 1.01.094 2.31.094 3.903l-.024 3.786c.88-.994 1.602-2.33 2.168-4.01.566-1.679.849-3.22.849-4.626 0-.415-.043-.818-.128-1.21-.022-.1.006-.21.08-.28.458-.426 1.046-.639 1.768-.639.692 0 1.15.217 1.379.65.228.435.373 1.1.436 2 .079 1.183.118 2.714.118 4.59l-.023 2.721c-.016.173-.023.442-.023.804.894-.994 1.621-2.327 2.179-3.998.558-1.672.837-3.217.837-4.638 0-.472-.056-.93-.165-1.371.22-.237.498-.422.837-.556.337-.134.71-.202 1.119-.202zm-22.037 1.42c-.722 0-1.296.383-1.72 1.148-.425.764-.77 1.912-1.037 3.441-.268 1.373-.4 2.564-.4 3.573 0 .631.097 1.124.293 1.479.197.354.547.531 1.05.531.738 0 1.315-.38 1.732-1.147.416-.764.758-1.919 1.026-3.466.283-1.45.423-2.633.423-3.548 0-.646-.102-1.144-.306-1.49-.205-.347-.558-.52-1.06-.52zm28.73-6.317c.629 0 1.135.147 1.52.438.386.291.577.705.577 1.242 0 .552-.2.973-.6 1.266-.401.291-.923.437-1.568.437-.628 0-1.138-.142-1.532-.426-.392-.284-.589-.693-.589-1.23 0-.552.205-.977.613-1.277.409-.3.935-.45 1.579-.45zM20.515 0H6.561C4.967 0 3.484.923 2.874 2.396c-.031.075-.06.152-.089.232 0 0-3.646 11.65-2.595 16.667.356 1.696 2.652 1.928 3.343.34.1-.231.197-.496.29-.8.13-.43.21-.873.258-1.32.271-2.542 1.625-12.552 6.204-13.564.329-.073.603.258.464.566-.405.889-1.112 2.511-1.46 3.705-.19.654-.416 1.298-.709 1.913-.35.738-.848 1.59-1.472 2.162-.673.618-1.16 1.41-1.335 2.307l-.263 1.348c-.045.234.26.365.399.17l.895-1.259c.055-.078.109-.157.162-.237.308-.467 1.677-2.405 3.327-2.69.17-.03.284.173.174.308-.44.544-1.035 1.578-1.435 2.087-.062.08-.161.246-.198.297-.329.459-1.216 1.498-1.91 2.177-.365.356-.663.642-1.042 1.12-.76.956-1 2.893.473 3.744 0 0 3.05 1.607 3.612-3.31.049-.425.117-.848.213-1.264.491-2.138 2.096-7.814 5.354-8.221.187-.024.335.161.275.34-.34 1.015-1.415 3.933-3.165 5.942-.747.859-1.286 1.886-1.541 2.995-.262 1.14-.243 2.434.756 3.27 0 0 1.345 1.035 3.344.246 1.527-.602 2.633-1.95 3.045-3.539.37-1.432.822-3.622.85-5.88 0 0 .1-6 2.778-9.074 0 0 .109-.133.241-.352C22.867 1.584 21.963 0 20.515 0"/>
</svg>
